<svg xmlns="http://www.w3.org/2000/svg" version="1.1" xmlns:xlink="http://www.w3.org/1999/xlink" xmlns:svgjs="http://svgjs.dev/svgjs" width="2000" height="1843" viewBox="0 0 2000 1843"><g transform="matrix(1,0,0,1,-1.6138745737411,0.7475317086184532)"><svg viewBox="0 0 268 247" data-background-color="#ffffff" preserveAspectRatio="xMidYMid meet" height="1843" width="2000" xmlns="http://www.w3.org/2000/svg" xmlns:xlink="http://www.w3.org/1999/xlink"><g id="tight-bounds" transform="matrix(1,0,0,1,0.21661280234872038,-0.09997365579206985)"><svg viewBox="0 0 267.5670061202186 247.2" height="247.2" width="267.5670061202186"><g><svg viewBox="0 0 267.5670061202186 247.2" height="247.2" width="267.5670061202186"><g><svg viewBox="0 0 267.5670061202186 247.2" height="247.2" width="267.5670061202186"><g id="textblocktransform"><svg viewBox="0 0 267.5670061202186 247.2" height="247.2" width="267.5670061202186" id="textblock"><g><svg viewBox="0 0 267.5670061202186 247.2" height="247.2" width="267.5670061202186"><path d="M266.941 53.02C265.683 27.36 262.098 20.227 262.098 20.227 251.091-6.202 237.355-0.506 225.015 3.292 203.228 3.446 181.53 9.091 159.794 12.119 114.17 12.581 68.156 4.986 22.759 23.717 18.495 29.464-4.424 24.846 0.758 56.304 2.117 69.39 7.073 83.913 6.922 95.922 7.601 98.026 8.545 93.202 8.947 96.23 10.356 104.39 12.658 100.541 14.545 105.365 11.916 118.246 13.803 128.971 15.602 140.21 12.432 143.135 8.369 141.749 6.545 151.449 6.356 158.479 5.337 157.145 4.218 156.837 3.4 156.632 1.752 157.402 2.029 159.608 2.972 167.152-1.078 171.514 1.463 178.904-0.286 186.91 2.67 193.838 2.268 202.511 2.218 204.255 2.494 205.744 2.935 206.154 4.884 208.361 2.042 212.672 2.343 217.342 22.344 249.262 44.042 227.195 64.534 241.872 69.854 231.608 65.854 245.516 67.98 243.36 69.641 240.846 70.848 251.263 72.722 245.362 73.012 243.668 72.571 239.665 73.603 240.435 74.144 240.846 74.622 240.743 74.697 238.382 74.81 234.841 73.817 237.048 73.553 235.201 76.408 225.861 75.704 248.081 78.383 247.158 78.257 244.438 77.477 240.538 79.075 241.051 80.66 237.151 80.71 233.918 82.119 242.693 82.169 244.592 82.421 245.926 82.823 246.85 87.226 237.305 91.603 250.237 96.22 245.926 99.05 241.205 101.767 248.492 104.635 246.696 105.641 245.259 106.66 242.693 107.629 247.004 119.491 247.928 132.133 244.079 143.378 247.158 173.429 241.41 205.543 249.518 237.229 241.923 244.701 238.998 252.462 234.841 259.745 231.506 259.745 231.506 265.645 222.371 265.645 181.316S266.903 145.393 267.092 112.703C267.28 80.013 268.161 78.679 266.903 53.02Z" opacity="1" fill="#ed2647" data-fill-palette-color="tertiary"></path><g transform="matrix(1,0,0,1,55.76832000000002,26.230666666666668)"><svg width="156.03036612021856" viewBox="0.45 -24.4 19.55 24.4" height="194.73866666666666" data-palette-color="#ffffff"><path d="M10.25-5.45L13.5-24.4 20-24.4 14.65 0 5.8 0 0.45-24.4 6.95-24.4 10.25-5.45Z" opacity="1" transform="matrix(1,0,0,1,0,0)" fill="#ffffff" class="wordmark-text-0" data-fill-palette-color="quaternary" id="text-0"></path></svg></g></svg></g></svg></g></svg></g><g></g></svg></g><defs></defs></svg><rect width="267.5670061202186" height="247.2" fill="none" stroke="none" visibility="hidden"></rect></g></svg></g></svg>